<svg width="240" height="30" viewBox="0 0 120 15" fill="none" xmlns="http://www.w3.org/2000/svg">
<path d="M53.2896 6.01996H46.5192V7.75563H53.2896V6.01996Z" fill="white"/>
<path d="M43.5093 14.1437H41.8258L32.64 2.76954V14.1437H30.9565V0.332214H32.8596L41.8258 11.374V0.332214H43.5093V14.1437Z" fill="white"/>
<path d="M120 14.144H118.316L109.13 2.76985V14.144H107.41V0.33252H109.35L118.28 11.3743V0.33252H120V14.144Z" fill="white"/>
<path d="M55.8471 14.1437H46.0391V0.332214H55.8471V2.06789H47.7592V12.4081H55.8471V14.1437Z" fill="white"/>
<path d="M84.2796 0.332214H72.7882V2.06789H84.2796V0.332214Z" fill="white"/>
<path d="M79.1583 0.480164H77.4382V14.107H79.1583V0.480164Z" fill="white"/>
<path d="M88.1178 0.332153H86.3977V14.1437H88.1178V0.332153Z" fill="white"/>
<path d="M58.7688 14.1806L56.4266 14.1067L63.4166 7.05327L56.756 0.332153H59.1714L65.2465 6.4624C65.3928 6.61012 65.5026 6.83169 65.5026 7.05327C65.5026 7.27484 65.4294 7.49642 65.2465 7.64413L58.7688 14.1806Z" fill="white"/>
<path d="M66.6833 5.57616L65.4756 4.3575L69.5013 0.332214H71.9167L66.6833 5.57616Z" fill="white"/>
<path d="M69.8297 14.1439L65.4746 9.74936L66.6823 8.5307L72.2451 14.1439H69.8297Z" fill="white"/>
<path d="M21.8431 14.3283C17.9272 14.3283 14.7067 11.1524 14.7067 7.20094C14.7433 3.28645 17.9272 0.110535 21.8431 0.110535C25.7589 0.110535 28.9795 3.28645 28.9795 7.23787C28.9795 11.1524 25.7955 14.3283 21.8431 14.3283ZM21.8431 1.84621C18.8421 1.84621 16.4267 4.28353 16.4267 7.23787C16.4267 10.1922 18.8421 12.6295 21.8431 12.6295C24.844 12.6295 27.2594 10.2291 27.2594 7.23787C27.2594 4.2466 24.844 1.84621 21.8431 1.84621Z" fill="white"/>
<path d="M97.7841 14.3285C93.8682 14.3285 90.6477 11.1526 90.6477 7.20119C90.6477 3.28669 93.8316 0.0738525 97.7841 0.0738525C101.737 0.0738525 104.921 3.24976 104.921 7.20119C104.884 11.1526 101.7 14.3285 97.7841 14.3285ZM97.7841 1.84645C94.7832 1.84645 92.3678 4.28378 92.3678 7.23812C92.3678 10.1925 94.7832 12.6298 97.7841 12.6298C100.785 12.6298 103.2 10.1925 103.2 7.23812C103.2 4.28378 100.748 1.84645 97.7841 1.84645Z" fill="white"/>
<path d="M6.84363 14.2916C3.07414 14.2916 0 11.1157 0 7.16426C0 3.21284 3.07414 0 6.84363 0C9.47861 0 11.9306 1.62488 13.0285 4.173L13.3579 4.94851L11.8208 5.65017L11.4914 4.87465C10.6497 2.95434 8.81987 1.73567 6.84363 1.73567C4.02567 1.73567 1.72006 4.173 1.72006 7.16426C1.72006 10.1555 4.02567 12.5929 6.84363 12.5929C8.81987 12.5929 10.6497 11.3742 11.4914 9.45387L11.8208 8.67836L13.3579 9.38002L13.0285 10.1555C11.9306 12.6667 9.47861 14.2916 6.84363 14.2916Z" fill="white"/>
</svg>
